<svg width="14" height="15" viewBox="0 0 14 15" fill="none" xmlns="http://www.w3.org/2000/svg">
<path d="M10.038 15C9.632 14.188 9.184 13.369 8.694 12.543C8.218 11.703 7.665 10.849 7.035 9.981C6.839 10.233 6.587 10.583 6.279 11.031C5.985 11.479 5.684 11.955 5.376 12.459C5.082 12.963 4.802 13.446 4.536 13.908C4.27 14.37 4.074 14.734 3.948 15H0.21C0.826 13.866 1.54 12.676 2.352 11.43C3.178 10.184 4.095 8.861 5.103 7.461L0.42 0.447H4.389L7.224 4.983L9.996 0.447H13.734L9.114 7.503C10.29 9.029 11.277 10.443 12.075 11.745C12.873 13.033 13.503 14.118 13.965 15H10.038Z" fill="white"/>
</svg>
